Coordinates
version=1
nRows=10
nColumns=40
inDegrees=yes
endheader
time	pelvis_tilt	pelvis_list	pelvis_rotation	pelvis_tx	pelvis_ty	pelvis_tz	hip_flexion_r	hip_adduction_r	hip_rotation_r	knee_angle_r	knee_angle_r_beta	ankle_angle_r	subtalar_angle_r	mtp_angle_r	hip_flexion_l	hip_adduction_l	hip_rotation_l	knee_angle_l	knee_angle_l_beta	ankle_angle_l	subtalar_angle_l	mtp_angle_l	lumbar_extension	lumbar_bending	lumbar_rotation	arm_flex_r	arm_add_r	arm_rot_r	elbow_flex_r	pro_sup_r	wrist_flex_r	wrist_dev_r	arm_flex_l	arm_add_l	arm_rot_l	elbow_flex_l	pro_sup_l	wrist_flex_l	wrist_dev_l
1760624796.37659407	      8.97957263	     -1.29134563	      0.83995559	      0.16666335	      0.88390144	      0.00030758	     80.00000000	     -7.00000000	      0.00000000	     80.00000000	      1.39626340	      0.00000000	      0.00000000	      0.00000000	     80.00000000	     -7.00000000	      0.00000000	     80.00000000	      1.39626340	      0.00000000	      0.00000000	      0.00000000	    -16.24706270	      0.09370422	      3.79320117	      3.09964434	     -7.75039286	     20.88172414	      0.00000000	      0.00000000	     -4.33242685	    -14.35744501	      6.00052965	     -5.66014129	     14.35630176	      0.00000000	     13.71326562	     -6.00255371	     -8.20118009
1760624796.38659406	      8.97937129	     -1.29121401	      0.84042512	      0.16669339	      0.88389154	      0.00029593	     80.00000000	     -7.00000000	      0.00000000	     80.00000000	      1.39626340	      0.00000000	      0.00000000	      0.00000000	     80.00000000	     -7.00000000	      0.00000000	     80.00000000	      1.39626340	      0.00000000	      0.00000000	      0.00000000	    -16.24705285	      0.09332505	      3.79402438	      3.09954813	     -7.74874523	     20.88158910	      0.00000000	      0.00000000	     -4.33260035	    -14.35728256	      6.00170951	     -5.65961279	     14.35638123	      0.00000000	     13.71327046	     -6.00256631	     -8.20117058
1760624796.39659405	      8.95063507	     -1.25062890	      0.90568502	      0.16644768	      0.88386647	      0.00039174	     80.00000000	     -7.00000000	      0.00000000	     80.00000000	      1.39626340	      0.00000000	      0.00000000	      0.00000000	     80.00000000	     -7.00000000	      0.00000000	     80.00000000	      1.39626340	      0.00000000	      0.00000000	      0.00000000	    -16.24591066	      0.02954686	      3.92088078	      3.02002611	     -7.68917557	     20.85868379	      0.00000000	      0.00000000	     -4.37088237	    -14.33062237	      6.16471378	     -5.68038402	     14.37161280	      0.00000000	     13.71448180	     -6.00747628	     -8.20036340
1760624796.40659404	      8.95115875	     -1.25016037	      0.90586216	      0.16651381	      0.88383064	      0.00036173	     80.00000000	     -7.00000000	      0.00000000	     80.00000000	      1.39626340	      0.00000000	      0.00000000	      0.00000000	     80.00000000	     -7.00000000	      0.00000000	     80.00000000	      1.39626340	      0.00000000	      0.00000000	      0.00000000	    -16.24521275	      0.02901455	      3.92222259	      3.02139056	     -7.69011007	     20.85859981	      0.00000000	      0.00000000	     -4.37123705	    -14.33038663	      6.16501878	     -5.67990505	     14.37167971	      0.00000000	     13.71443412	     -6.00757324	     -8.20030323
1760624796.41659403	      8.95220749	     -1.24897190	      0.90742135	      0.16658830	      0.88381408	      0.00033472	     80.00000000	     -7.00000000	      0.00000000	     80.00000000	      1.39626340	      0.00000000	      0.00000000	      0.00000000	     80.00000000	     -7.00000000	      0.00000000	     80.00000000	      1.39626340	      0.00000000	      0.00000000	      0.00000000	    -16.24367974	      0.02848669	      3.92531678	      3.02462162	     -7.69238951	     20.85862083	      0.00000000	      0.00000000	     -4.37170677	    -14.33010526	      6.16522657	     -5.67980986	     14.37177022	      0.00000000	     13.71438013	     -6.00769411	     -8.20024466
1760624796.42659402	      8.93424931	     -1.20098103	      0.88435543	      0.16643386	      0.88374998	     -0.00000520	     80.00000000	     -7.00000000	      0.00000000	     80.00000000	      1.39626340	      0.00000000	      0.00000000	      0.00000000	     80.00000000	     -7.00000000	      0.00000000	     80.00000000	      1.39626340	      0.00000000	      0.00000000	      0.00000000	    -16.24398719	      0.01130041	      3.98894615	      3.04949077	     -7.76625832	     20.84614378	      0.00000000	      0.00000000	     -4.40509068	    -14.31011524	      6.21032508	     -5.63595444	     14.37806021	      0.00000000	     13.71174514	     -6.01371723	     -8.19641237
1760624796.43659401	      8.93602636	     -1.20128356	      0.88564523	      0.16653771	      0.88371761	     -0.00004225	     80.00000000	     -7.00000000	      0.00000000	     80.00000000	      1.39626340	      0.00000000	      0.00000000	      0.00000000	     80.00000000	     -7.00000000	      0.00000000	     80.00000000	      1.39626340	      0.00000000	      0.00000000	      0.00000000	    -16.24186518	      0.00999628	      3.99144351	      3.05323997	     -7.76659337	     20.84615175	      0.00000000	      0.00000000	     -4.40555053	    -14.30982067	      6.21164792	     -5.63683393	     14.37822362	      0.00000000	     13.71174439	     -6.01380557	     -8.19637535
1760624796.44659400	      8.94721257	     -1.19236754	      0.89704569	      0.16661532	      0.88364254	     -0.00008233	     80.00000000	     -7.00000000	      0.00000000	     80.00000000	      1.39626340	      0.00000000	      0.00000000	      0.00000000	     80.00000000	     -7.00000000	      0.00000000	     80.00000000	      1.39626340	      0.00000000	      0.00000000	      0.00000000	    -16.22931004	      0.01015975	      4.01363035	      3.07765177	     -7.76691878	     20.84620946	      0.00000000	      0.00000000	     -4.40926936	    -14.30791348	      6.21436212	     -5.64140785	     14.37913260	      0.00000000	     13.71163151	     -6.01449452	     -8.19611266
1760624796.45659399	      8.95332877	     -1.18936847	      0.90736512	      0.16676564	      0.88365010	     -0.00013444	     80.00000000	     -7.00000000	      0.00000000	     80.00000000	      1.39626340	      0.00000000	      0.00000000	      0.00000000	     80.00000000	     -7.00000000	      0.00000000	     80.00000000	      1.39626340	      0.00000000	      0.00000000	      0.00000000	    -16.22063310	      0.00522288	      4.03373879	      3.10588969	     -7.78135509	     20.84596152	      0.00000000	      0.00000000	     -4.41335043	    -14.30607978	      6.22078838	     -5.64720330	     14.38037428	      0.00000000	     13.71166638	     -6.01516511	     -8.19584272
1760624796.46659398	      8.91385465	     -1.16706550	      0.87008972	      0.16634611	      0.88358651	     -0.00029241	     80.00000000	     -7.00000000	      0.00000000	     80.00000000	      1.39626340	      0.00000000	      0.00000000	      0.00000000	     80.00000000	     -7.00000000	      0.00000000	     80.00000000	      1.39626340	      0.00000000	      0.00000000	      0.00000000	    -16.24822181	     -0.00610139	      4.08981268	      3.20910935	     -7.84737310	     20.83352142	      0.00000000	      0.00000000	     -4.45077465	    -14.28565272	      6.30129745	     -5.62100211	     14.39086613	      0.00000000	     13.71146882	     -6.01989960	     -8.19171471
